<svg width="32" height="32" viewBox="0 0 32 32" fill="none" xmlns="http://www.w3.org/2000/svg"><path fill="#3559c7" d="M26.2019 32C24.7797 32 23.4258 31.453 22.4139 30.441L22.3865 30.4137C22.3592 30.4 22.3455 30.3727 22.3182 30.359L8.0549 15.9453L10.3797 13.6205L24.6156 27.4598L24.6429 27.4872C24.6703 27.5009 24.684 27.5282 24.7113 27.5556C25.1079 27.9521 25.6412 28.1846 26.2019 28.1846C27.3643 28.1846 28.4583 27.2274 28.4583 26.0376V5.97607C28.4583 4.78633 27.378 3.82906 26.2019 3.82906C25.6686 3.82906 25.1352 4.04786 24.7387 4.43077L24.6976 4.4718L17.9694 10.653L15.6446 8.32821L22.3045 1.66838C22.3182 1.6547 22.3318 1.62735 22.3592 1.61368C23.3848 0.588034 24.7797 0 26.2019 0C29.1558 0 31.6993 2.39316 31.7404 5.34701V26.6667C31.6857 29.6205 29.1421 32 26.2019 32Z" /><path fill="#3559c7" d="M5.66147 0C7.0837 0 8.43754 0.547009 9.44951 1.55897L9.47686 1.58633C9.50421 1.6 9.51788 1.62735 9.54523 1.64103L23.9452 15.9179L21.6204 18.2427L7.2478 4.54017L7.22045 4.51282C7.1931 4.49914 7.17942 4.47179 7.15207 4.44444C6.75549 4.04786 6.22216 3.81538 5.66147 3.81538C4.49908 3.81538 3.54182 4.77265 3.54182 5.96239V26.0239C3.54182 27.2137 4.48541 28.1709 5.66147 28.1709C6.19481 28.1709 6.72814 27.9521 7.12472 27.5692L7.16575 27.5282L13.894 21.347L16.2187 23.6718L9.55891 30.3316C9.54524 30.3453 9.53156 30.3727 9.50421 30.3863C8.47857 31.412 7.0837 32 5.66147 32C2.70763 32 0.300792 29.6068 0.259766 26.653V5.33333C0.314466 2.37949 2.7213 0 5.66147 0Z" /></svg>
