<svg width="386" height="320" viewBox="0 0 386 320" fill="none" xmlns="http://www.w3.org/2000/svg">
<path d="M234 111.992C234 117.403 229.548 121.834 224 121.834C218.452 121.834 214 117.403 214 111.992C214 106.582 218.452 102.151 224 102.151C229.548 102.151 234 106.582 234 111.992Z" stroke="#3559C7" stroke-width="4"/>
<path d="M269 137.649C269 143.059 264.548 147.491 259 147.491C253.452 147.491 249 143.059 249 137.649C249 132.239 253.452 127.807 259 127.807C264.548 127.807 269 132.239 269 137.649Z" stroke="#3559C7" stroke-width="4"/>
<path d="M384 60.6789C384 66.0893 379.548 70.5205 374 70.5205C368.452 70.5205 364 66.0893 364 60.6789C364 55.2685 368.452 50.8373 374 50.8373C379.548 50.8373 384 55.2685 384 60.6789Z" stroke="#3559C7" stroke-width="4"/>
<path d="M230 41.9297C230 47.3401 225.548 51.7713 220 51.7713C214.452 51.7713 210 47.3401 210 41.9297C210 36.5193 214.452 32.0881 220 32.0881C225.548 32.0881 230 36.5193 230 41.9297Z" stroke="#3559C7" stroke-width="4"/>
<path d="M275 82.3884C275 87.7988 270.548 92.23 265 92.23C259.452 92.23 255 87.7988 255 82.3884C255 76.9781 259.452 72.5469 265 72.5469C270.548 72.5469 275 76.9781 275 82.3884Z" stroke="#3559C7" stroke-width="4"/>
<path d="M161 12.3258C161 17.7362 156.548 22.1674 151 22.1674C145.452 22.1674 141 17.7362 141 12.3258C141 6.91545 145.452 2.48425 151 2.48425C156.548 2.48425 161 6.91545 161 12.3258Z" stroke="#3559C7" stroke-width="4"/>
<path d="M234 188.963C234 194.373 229.548 198.804 224 198.804C218.452 198.804 214 194.373 214 188.963C214 183.552 218.452 179.121 224 179.121C229.548 179.121 234 183.552 234 188.963Z" stroke="#3559C7" stroke-width="4"/>
<path d="M275 177.121C275 182.531 270.548 186.963 265 186.963C259.452 186.963 255 182.531 255 177.121C255 171.711 259.452 167.279 265 167.279C270.548 167.279 275 171.711 275 177.121Z" stroke="#3559C7" stroke-width="4"/>
<path d="M313 132.715C313 138.125 308.548 142.557 303 142.557C297.452 142.557 293 138.125 293 132.715C293 127.305 297.452 122.874 303 122.874C308.548 122.874 313 127.305 313 132.715Z" stroke="#3559C7" stroke-width="4"/>
<path d="M342 178.108C342 183.518 337.548 187.949 332 187.949C326.452 187.949 322 183.518 322 178.108C322 172.697 326.452 168.266 332 168.266C337.548 168.266 342 172.697 342 178.108Z" stroke="#3559C7" stroke-width="4"/>
<path d="M102 132.715C102 138.125 97.548 142.557 92 142.557C86.452 142.557 82 138.125 82 132.715C82 127.305 86.452 122.874 92 122.874C97.548 122.874 102 127.305 102 132.715Z" stroke="#3559C7" stroke-width="4"/>
<path d="M154 135.675C154 141.086 149.548 145.517 144 145.517C138.452 145.517 134 141.086 134 135.675C134 130.265 138.452 125.834 144 125.834C149.548 125.834 154 130.265 154 135.675Z" stroke="#3559C7" stroke-width="4"/>
<path d="M192 102.124C192 107.535 187.548 111.966 182 111.966C176.452 111.966 172 107.535 172 102.124C172 96.714 176.452 92.2828 182 92.2828C187.548 92.2828 192 96.714 192 102.124Z" stroke="#3559C7" stroke-width="4"/>
<path d="M162 72.5205C162 77.9308 157.548 82.362 152 82.362C146.452 82.362 142 77.9308 142 72.5205C142 67.1101 146.452 62.6789 152 62.6789C157.548 62.6789 162 67.1101 162 72.5205Z" stroke="#3559C7" stroke-width="4"/>
<path d="M92 82.3884C92 87.7988 87.548 92.23 82 92.23C76.452 92.23 72 87.7988 72 82.3884C72 76.9781 76.452 72.5469 82 72.5469C87.548 72.5469 92 76.9781 92 82.3884Z" stroke="#3559C7" stroke-width="4"/>
<path d="M62 152.451C62 157.861 57.548 162.293 52 162.293C46.452 162.293 42 157.861 42 152.451C42 147.041 46.452 142.609 52 142.609C57.548 142.609 62 147.041 62 152.451Z" stroke="#3559C7" stroke-width="4"/>
<path d="M22 83.3752C22 88.7856 17.548 93.2168 12 93.2168C6.45201 93.2168 2 88.7856 2 83.3752C2 77.9648 6.45201 73.5336 12 73.5336C17.548 73.5336 22 77.9648 22 83.3752Z" stroke="#3559C7" stroke-width="4"/>
<path d="M108 177.121C108 182.531 103.548 186.963 98 186.963C92.452 186.963 88 182.531 88 177.121C88 171.711 92.452 167.279 98 167.279C103.548 167.279 108 171.711 108 177.121Z" stroke="#3559C7" stroke-width="4"/>
<path d="M155 178.108C155 183.518 150.548 187.949 145 187.949C139.452 187.949 135 183.518 135 178.108C135 172.697 139.452 168.266 145 168.266C150.548 168.266 155 172.697 155 178.108Z" stroke="#3559C7" stroke-width="4"/>
<path d="M209 154.425C209 163.65 201.414 171.174 192 171.174C182.586 171.174 175 163.65 175 154.425C175 145.199 182.586 137.675 192 137.675C201.414 137.675 209 145.199 209 154.425Z" stroke="#0C1A3D" stroke-width="4"/>
<path d="M102 230.408C102 235.818 97.548 240.25 92 240.25C86.452 240.25 82 235.818 82 230.408C82 224.998 86.452 220.566 92 220.566C97.548 220.566 102 224.998 102 230.408Z" stroke="#3559C7" stroke-width="4"/>
<path d="M68 265.933C68 271.343 63.548 275.774 58 275.774C52.452 275.774 48 271.343 48 265.933C48 260.522 52.452 256.091 58 256.091C63.548 256.091 68 260.522 68 265.933Z" stroke="#3559C7" stroke-width="4"/>
<path d="M137 273.827C137 279.238 132.548 283.669 127 283.669C121.452 283.669 117 279.238 117 273.827C117 268.417 121.452 263.986 127 263.986C132.548 263.986 137 268.417 137 273.827Z" stroke="#3559C7" stroke-width="4"/>
<path d="M149 217.58C149 222.99 144.548 227.421 139 227.421C133.452 227.421 129 222.99 129 217.58C129 212.169 133.452 207.738 139 207.738C144.548 207.738 149 212.169 149 217.58Z" stroke="#3559C7" stroke-width="4"/>
<path d="M190 222.514C190 227.924 185.548 232.355 180 232.355C174.452 232.355 170 227.924 170 222.514C170 217.103 174.452 212.672 180 212.672C185.548 212.672 190 217.103 190 222.514Z" stroke="#3559C7" stroke-width="4"/>
<path d="M233 242.25C233 247.66 228.548 252.091 223 252.091C217.452 252.091 213 247.66 213 242.25C213 236.839 217.452 232.408 223 232.408C228.548 232.408 233 236.839 233 242.25Z" stroke="#3559C7" stroke-width="4"/>
<path d="M245 307.378C245 312.789 240.548 317.22 235 317.22C229.452 317.22 225 312.789 225 307.378C225 301.968 229.452 297.537 235 297.537C240.548 297.537 245 301.968 245 307.378Z" stroke="#3559C7" stroke-width="4"/>
<path d="M276 222.514C276 227.924 271.548 232.355 266 232.355C260.452 232.355 256 227.924 256 222.514C256 217.103 260.452 212.672 266 212.672C271.548 212.672 276 217.103 276 222.514Z" stroke="#3559C7" stroke-width="4"/>
<path d="M330 229.421C330 234.832 325.548 239.263 320 239.263C314.452 239.263 310 234.832 310 229.421C310 224.011 314.452 219.58 320 219.58C325.548 219.58 330 224.011 330 229.421Z" stroke="#3559C7" stroke-width="4"/>
</svg>
