<svg width="553" height="218" viewBox="0 0 553 218" fill="none" xmlns="http://www.w3.org/2000/svg">
<rect x="262" y="52.0818" width="72" height="15.7359" rx="7.86797" stroke="#FFDFA3" stroke-width="4"/>
<rect x="2" y="52.0818" width="72" height="15.7359" rx="7.86797" stroke="#FFDFA3" stroke-width="4"/>
<rect x="517" y="52.0818" width="34" height="15.7359" rx="7.86797" stroke="#FFC8C4" stroke-width="4"/>
<rect x="111" y="2.74194" width="56" height="15.7359" rx="7.86797" stroke="#F8C35E" stroke-width="4"/>
<rect x="227" y="2.74194" width="56" height="15.7359" rx="7.86797" stroke="#3559C7" stroke-width="4"/>
<rect x="392" y="2.74194" width="34" height="15.7359" rx="7.86797" stroke="#FC685E" stroke-width="4"/>
<rect x="180" y="150.762" width="103" height="15.7359" rx="7.86797" stroke="#FFA19A" stroke-width="4"/>
<rect x="271" y="200.101" width="82" height="15.7359" rx="7.86797" stroke="#F8C35E" stroke-width="4"/>
<rect x="21" y="200.101" width="109" height="15.7359" rx="7.86797" stroke="#3559C7" stroke-width="4"/>
<rect x="422" y="200.101" width="50" height="15.7359" rx="7.86797" stroke="#FFA19A" stroke-width="4"/>
<rect x="71" y="101.422" width="109" height="15.7359" rx="7.86797" stroke="#69CDD8" stroke-width="4"/>
<rect x="430" y="101.422" width="50" height="15.7359" rx="7.86797" stroke="#3559C7" stroke-width="4"/>
<rect x="345" y="101.422" width="50" height="15.7359" rx="7.86797" stroke="#69CDD8" stroke-width="4"/>
</svg>
