<?xml version="1.0" encoding="utf-8"?>
<!-- Generator: Adobe Illustrator 25.2.0, SVG Export Plug-In . SVG Version: 6.00 Build 0)  -->
<svg version="1.1" id="Layer_1" xmlns="http://www.w3.org/2000/svg" xmlns:xlink="http://www.w3.org/1999/xlink" x="0px" y="0px"
	 viewBox="0 0 1202 234" style="enable-background:new 0 0 1202 234;" xml:space="preserve">
<style type="text/css">
	.st0{fill:#3559C7;}
	.st1{fill:#0C1A3D;}
</style>
<path class="st0" d="M190.4,0c-10.4,0-20.6,4.3-28.1,11.8c-0.2,0.1-0.3,0.3-0.4,0.4l-46.4,46.4L68.5,12c-0.2-0.1-0.3-0.3-0.5-0.4
	l-0.2-0.2C60.4,4,50.5,0,40.1,0C18.6,0,1,17.4,0.6,39v155.9C0.9,216.5,18.5,234,40.1,234c10.4,0,20.6-4.3,28.1-11.8
	c0.2-0.1,0.3-0.3,0.4-0.4l46.8-46.8l46.5,47c0.2,0.1,0.3,0.3,0.5,0.4l0.2,0.2c7.4,7.4,17.3,11.4,27.7,11.4c21.5,0,40.1-17.4,40.5-39
	V39.1C230.6,17.5,212,0,190.4,0z M206.9,190.4c0,8.7-8,15.7-16.5,15.7c-4.1,0-8-1.7-10.9-4.6c-0.2-0.2-0.3-0.4-0.5-0.5l-0.2-0.2
	L74.7,99.6l-17,17l40.8,41.2l-47.3,43.5l-0.3,0.3c-2.9,2.8-6.8,4.4-10.7,4.4c-8.6,0-15.5-7-15.5-15.7V43.6c0-8.7,7-15.7,15.5-15.7
	c4.1,0,8,1.7,10.9,4.6c0.2,0.2,0.3,0.4,0.5,0.5l0.2,0.2l105.1,100.2l17-17l-41.2-40.8l46.7-42.9l0.3-0.3c2.9-2.8,6.8-4.4,10.7-4.4
	c8.6,0,16.5,7,16.5,15.7V190.4z"/>
<path class="st1" d="M346.8,77.8c-13.5,0-24.4,6.6-27.5,16.5h-0.5L315.5,80h-21.7v90.9h24.9v-49c0-12.3,7.3-20.7,18.4-20.7
	c10.2,0,17.3,7.9,17.3,19.6v50.1h24.9v-58.7C379.4,91.6,366.5,77.8,346.8,77.8z"/>
<path class="st1" d="M442.5,173c28.6,0,47.7-19.1,47.7-47.7c0-28.6-19.1-47.7-47.7-47.7s-47.9,19.1-47.9,47.7
	C394.6,153.9,413.9,173,442.5,173z M442.5,149.5c-13.5,0-22.4-9.7-22.4-24.2s8.9-24.2,22.4-24.2s22.2,9.7,22.2,24.2
	S456,149.5,442.5,149.5z"/>
<path class="st1" d="M553.7,80c-10.9,0-19.7,6.8-22.2,17.1h-0.2L528,80h-21.7v90.9h24.9v-40.9c0-15,7.6-24.9,19.5-24.9h13.8V80
	H553.7z"/>
<path class="st1" d="M640.5,36v57.9H640c-2.9-9.5-13.7-16.1-26.8-16.1c-24.8,0-41.1,19.1-41.1,47.7c0,28.6,16.4,47.7,41.1,47.7
	c13.1,0,23.8-6.6,26.8-16.3h0.5l3.3,14.1h21.7V36H640.5z M619,150.2c-12.9,0-21.5-9.9-21.5-24.8s8.6-24.8,21.5-24.8
	s21.5,9.9,21.5,24.8S631.9,150.2,619,150.2z"/>
<path class="st1" d="M738.9,77.8c-13.5,0-24.4,6.6-27.5,16.5h-0.5V36h-24.9v134.9h24.9v-49c0-12.3,7.3-20.7,18.4-20.7
	c10.4,0,17.3,8.1,17.3,19.8v49.9h24.9v-58.7C771.4,91.6,758.5,77.8,738.9,77.8z"/>
<path class="st1" d="M875.7,124.9c0-28.2-17.7-47.1-43.9-47.1c-27.1,0-45.1,19.1-45.1,47.7c0,28.6,18.6,47.7,46.6,47.7
	c17.5,0,33.5-9.9,39.9-24.6l-19.7-8.2c-2.9,7.1-10.4,11.4-20.2,11.4c-12.4,0-20.6-6.6-22.9-18.3h65.3V124.9z M831.1,99.3
	c12.4,0,19.8,7.1,20.9,19.4h-41.9C812,106.4,819.6,99.3,831.1,99.3z"/>
<path class="st1" d="M973.9,150.2c-2.5,0-4-1.8-4-5.1v-34.7c0-20.5-14.2-32.6-38.8-32.6c-20.9,0-35.3,10.8-39.9,29.3l22,5.5
	c1.5-9,8.2-14.3,17.5-14.3c8.9,0,14.2,4.2,14.2,10.8v0.4c0,3.9-2.4,6.8-6.9,7.5l-23.3,3.7c-17.3,2.6-27.3,11.9-27.3,25.9
	c0,16.9,11.1,26.6,30.2,26.6c12.9,0,22.9-4.6,28.9-12.8c2.7,7,9.1,10.6,18.4,10.6h13.3v-20.7H973.9z M925.8,155
	c-8.4,0-13.5-3.7-13.5-9.7c0-5.5,4.4-9.2,11.3-10.3l21.3-3.3v3.3C944.9,147.1,937.3,155,925.8,155z"/>
<path class="st1" d="M992.4,170.9h24.9V36h-24.9V170.9z"/>
<path class="st1" d="M1072.6,148.8c-7.5,0-11.7-3.7-11.7-9.9V102h25.1V80H1061V51.8h-24.9v88.6c0,19.6,11.3,30.6,30.9,30.6h20.6
	v-22.2H1072.6z"/>
<path class="st1" d="M1156.8,77.8c-13.5,0-24.4,6.6-27.5,16.5h-0.6V36h-24.9v134.9h24.9v-49c0-12.3,7.3-20.7,18.4-20.7
	c10.4,0,17.3,8.1,17.3,19.8v49.9h24.9v-58.7C1189.3,91.6,1176.4,77.8,1156.8,77.8z"/>
</svg>
